<svg width="821" height="210" viewBox="0 0 821 210" fill="none" xmlns="http://www.w3.org/2000/svg">
<path d="M724.552 64.9789L727.194 63.5565L724.552 64.9789ZM786.725 152.372L788.935 150.343L786.725 152.372ZM690.829 63.9872C694.389 60.82 700.204 57.3088 706.056 56.691C708.917 56.389 711.723 56.7815 714.334 58.1746C716.946 59.5684 719.586 62.0839 721.911 66.4013L727.194 63.5565C724.42 58.4067 721.004 54.9331 717.159 52.8812C713.313 50.8288 709.263 50.3191 705.426 50.7242C697.883 51.5205 690.938 55.8599 686.841 59.5042L690.829 63.9872ZM721.911 66.4013C725.07 72.2673 727.705 78.2987 730.594 84.181C733.407 89.9077 736.429 95.4164 740.173 99.5012C743.995 103.672 748.734 106.53 754.858 106.545C760.819 106.56 767.565 103.872 775.49 98.2342L772.012 93.3452C764.542 98.6596 759.033 100.556 754.873 100.545C750.878 100.535 747.632 98.7593 744.596 95.4473C741.482 92.0497 738.775 87.2277 735.979 81.5358C733.26 75.9994 730.407 69.5244 727.194 63.5565L721.911 66.4013ZM779.53 189.793C784.317 187.118 790.694 181.979 793.919 175.114C795.56 171.622 796.407 167.63 795.729 163.323C795.051 159.018 792.89 154.651 788.935 150.343L784.515 154.4C787.831 158.013 789.342 161.332 789.802 164.256C790.262 167.179 789.712 169.959 788.489 172.563C785.986 177.889 780.763 182.231 776.603 184.556L779.53 189.793ZM788.935 150.343C784.351 145.349 779.169 140.531 774.831 136.147C770.37 131.639 766.703 127.5 764.514 123.445C762.38 119.491 761.767 115.842 763.068 112.064C764.422 108.131 768.02 103.549 775.49 98.2342L772.012 93.3452C764.087 98.9834 759.336 104.475 757.395 110.111C755.401 115.901 756.547 121.316 759.234 126.294C761.865 131.17 766.078 135.832 770.566 140.367C775.175 145.026 780.009 149.492 784.515 154.4L788.935 150.343Z" fill="#7C30F9"/>
<path d="M243.962 153.759C247.417 153.76 321.243 153.76 351.041 153.759M243.962 175.352H351.041M327.721 197.809L361.405 164.124L327.721 130.439" stroke="#F37A54" stroke-width="6" stroke-linejoin="round"/>
<path d="M455.849 109.22L416.406 146.545C409.145 153.415 397.689 153.099 390.818 145.838L370.599 124.471L350.379 103.103C343.508 95.8425 343.824 84.3865 351.085 77.5158L385.869 44.6006C389.026 41.6133 393.153 39.8617 397.494 39.6659L443.845 37.576C454.373 37.1013 463.078 45.685 462.752 56.218L461.5 96.6336C461.352 101.411 459.321 105.935 455.849 109.22Z" fill="#F4A727"/>
<path d="M403.568 68.7019L402.079 122.628M375.86 94.9209L429.787 96.4094" stroke="black" stroke-width="7" stroke-linecap="round" stroke-linejoin="round"/>
<circle cx="602.754" cy="75.3799" r="35.4122" transform="rotate(-8.54226 602.754 75.3799)" fill="#017AFF"/>
<circle cx="583.852" cy="78.2191" r="5.56494" transform="rotate(-8.54226 583.852 78.2191)" fill="white"/>
<circle cx="602.755" cy="75.3797" r="5.56494" transform="rotate(-8.54226 602.755 75.3797)" fill="white"/>
<circle cx="621.658" cy="72.5406" r="5.56494" transform="rotate(-8.54226 621.658 72.5406)" fill="white"/>
<circle cx="514.055" cy="70.4017" r="23.2153" transform="rotate(-8.54226 514.055 70.4017)" fill="#F93C30"/>
<path fill-rule="evenodd" clip-rule="evenodd" d="M528.01 74.0121C528.789 72.5673 529.057 70.9003 528.771 69.2759C528.486 67.6515 527.663 66.1628 526.433 65.046C525.204 63.9292 523.639 63.2485 521.985 63.1118C520.332 62.9752 518.687 63.3904 517.309 64.2917C517.309 63.2051 517.067 62.1294 516.601 61.1414C516.135 60.1535 515.456 59.2777 514.613 58.5767C513.77 57.8756 512.783 57.3665 511.723 57.0859C510.663 56.8052 509.556 56.7598 508.481 56.953C507.407 57.1462 506.391 57.5731 505.506 58.2034C504.622 58.8336 503.89 59.6516 503.364 60.5988C502.838 61.5461 502.53 62.5993 502.462 63.6831C502.395 64.767 502.569 65.8548 502.973 66.8688L502.959 66.8612C502.959 66.8612 506.55 80.1773 506.803 81.1264C506.862 81.35 506.967 81.5595 507.111 81.7419C507.255 81.9242 507.435 82.0755 507.64 82.1862C507.845 82.2969 508.07 82.3647 508.302 82.3853C508.533 82.4059 508.766 82.379 508.986 82.3061C509.929 82.0029 523.018 77.7139 523.018 77.7139C524.076 77.4994 525.071 77.0568 525.933 76.4172C526.796 75.7777 527.504 74.9567 528.01 74.0121V74.0121Z" fill="white"/>
<path d="M549.048 112.224C548.727 111.966 548.282 111.931 547.925 112.135C547.568 112.339 547.372 112.741 547.431 113.147L558.761 190.773C558.821 191.185 559.131 191.517 559.538 191.606C559.945 191.694 560.365 191.521 560.591 191.17L574.798 169.15L589.648 195.137C589.922 195.616 590.533 195.783 591.012 195.509L594.447 193.546L597.881 191.584C598.36 191.31 598.527 190.699 598.253 190.219L583.403 164.233L609.588 163.172C610.004 163.155 610.366 162.881 610.497 162.485C610.627 162.09 610.499 161.654 610.174 161.393L549.048 112.224Z" fill="black" stroke="white" stroke-width="2" stroke-linecap="round" stroke-linejoin="round"/>
<path d="M779.744 66.7419C779.744 65.4742 778.717 64.446 777.451 64.446C776.183 64.446 775.156 65.4742 775.156 66.7419V73.0863C775.156 74.3517 776.183 75.3797 777.451 75.3797C778.717 75.3797 779.744 74.3517 779.744 73.0863C779.744 73.0838 779.744 73.0838 779.744 73.0812V66.7445V66.7419Z" fill="#15D860"/>
<path d="M779.744 37.1293C779.714 35.8875 778.7 34.8877 777.451 34.8877C776.201 34.8877 775.185 35.8875 775.157 37.1293H775.156V43.5255V43.5267C775.156 44.7933 776.183 45.8215 777.451 45.8215C778.717 45.8215 779.744 44.7933 779.744 43.5267V37.186V37.1837C779.744 37.1812 779.744 37.1812 779.744 37.1787V37.1293Z" fill="#15D860"/>
<path d="M791.764 66.2037L787.283 61.7229C787.282 61.7206 787.282 61.7206 787.281 61.7206C786.385 60.8233 784.931 60.8233 784.036 61.7206C783.14 62.6152 783.14 64.0685 784.036 64.9654L788.521 69.4513C789.417 70.346 790.87 70.346 791.766 69.4513C792.662 68.554 792.662 67.1007 791.766 66.2063C791.765 66.2036 791.765 66.2037 791.764 66.2037Z" fill="#15D860"/>
<path d="M763.097 44.0257L767.62 48.5472C767.62 48.5472 767.62 48.5472 767.62 48.5497C768.517 49.4443 769.97 49.4443 770.864 48.5484C771.762 47.6525 771.762 46.1993 770.864 45.3034L766.381 40.8214C766.381 40.8189 766.381 40.8189 766.379 40.8176C766.379 40.8176 766.378 40.8164 766.376 40.8152L766.342 40.7806V40.7818C765.442 39.9217 764.019 39.9341 763.134 40.8176C762.252 41.7012 762.239 43.126 763.098 44.0243L763.097 44.0257Z" fill="#15D860"/>
<path d="M795.402 52.8401C795.402 52.8401 795.401 52.8401 795.4 52.8401H789.063C789.063 52.8401 789.06 52.8401 789.059 52.8401C787.792 52.8401 786.764 53.8669 786.764 55.1336C786.764 56.4015 787.792 57.4297 789.059 57.4297H795.402C796.67 57.4297 797.698 56.4015 797.698 55.1336C797.698 53.8669 796.67 52.8401 795.402 52.8401Z" fill="#15D860"/>
<path d="M765.842 57.4295H765.843C767.111 57.4295 768.138 56.4013 768.138 55.1334C768.138 53.8667 767.111 52.8398 765.843 52.8398H759.504C759.501 52.8398 759.501 52.8398 759.501 52.8398C759.499 52.8398 759.496 52.8398 759.496 52.8398H759.447C758.204 52.8695 757.205 53.8841 757.205 55.1334C757.205 56.3841 758.204 57.3974 759.447 57.427V57.4295H765.842Z" fill="#15D860"/>
<path d="M787.281 48.5486L791.767 44.0641C792.663 43.167 792.663 41.7138 791.767 40.8179C790.871 39.9221 789.418 39.922 788.522 40.8179C788.521 40.8192 788.521 40.8192 788.52 40.8216L784.039 45.3012C784.038 45.3024 784.038 45.3024 784.037 45.3036C783.141 46.1996 783.141 47.6528 784.037 48.5487C784.932 49.4445 786.385 49.4445 787.281 48.5486Z" fill="#15D860"/>
<path d="M767.619 61.7204L763.136 66.2037C763.136 66.2037 763.135 66.2037 763.134 66.2061C763.134 66.2061 763.132 66.2061 763.131 66.2086L763.097 66.2432H763.098C762.239 67.1427 762.252 68.5663 763.134 69.4513C764.019 70.3335 765.442 70.3461 766.342 69.4884L770.865 64.9655C771.762 64.0683 771.762 62.615 770.865 61.7207C769.97 60.8233 768.517 60.8233 767.619 61.7204Z" fill="#15D860"/>
<path d="M675.651 112.834C669.806 108.601 669.24 100.327 674.253 95.2535C678.752 90.7001 685.994 90.6568 690.548 95.1561C696.142 100.684 693.997 109.62 690.388 111.711L690.416 116.367C698.276 111.534 700.146 99.7545 692.99 92.6842C687.006 86.771 677.436 86.8282 671.523 92.8126C664.195 100.228 666.467 112.501 675.548 117.102L675.651 112.834Z" fill="#FF9E0D"/>
<path d="M656.094 151.103L651.438 151.131C649.518 154.375 640.611 157.145 634.887 151.488C630.462 146.859 630.547 139.487 635.046 134.933C639.931 129.99 648.34 130.328 652.642 136.122L656.78 136.097C652.334 127.846 641.844 125.452 634.761 130.538C625.616 136.671 625.823 149.732 634.783 155.757C641.666 160.501 651.612 158.501 656.094 151.103Z" fill="#FF9E0D"/>
<path d="M710.32 135.776L714.976 135.748C716.896 132.504 725.803 129.735 731.527 135.391C736.081 139.89 736.124 147.132 731.625 151.686C726.483 156.889 717.811 155.777 714.029 150.498L709.891 150.522C714.344 159.807 726.771 161.802 734.098 154.387C740.012 148.402 739.954 138.832 733.97 132.919C726.686 125.979 715.058 127.859 710.32 135.776Z" fill="#FF9E0D"/>
<path d="M690.761 174.045C696.214 177.633 697.43 186.291 692.159 191.625C687.66 196.178 680.418 196.222 675.865 191.722C670.271 186.195 672.546 177.387 676.024 175.168L675.997 170.512C667.878 175.346 666.267 187.124 673.422 194.194C679.407 200.108 688.977 200.05 694.89 194.066C702.217 186.65 699.945 174.378 690.865 169.776L690.761 174.045Z" fill="#FF9E0D"/>
<path d="M695.309 134.314L692.187 131.229C687.634 126.729 685.531 121.052 686.861 105.654C686.849 103.584 685.157 101.913 683.088 101.926C681.019 101.938 679.348 103.629 679.36 105.698C679.323 121.089 680.915 127.804 674.359 134.439C666.13 142.507 645.552 139.914 645.552 139.914C643.483 139.926 641.94 141.487 641.822 143.428C641.706 145.627 643.658 147.555 645.855 147.413C657.753 147.342 664.729 146.007 671.234 152.434L674.356 155.519C682.162 163.232 679.81 180.964 679.682 181.095C679.694 183.164 681.386 184.835 683.455 184.822C685.524 184.81 687.195 183.119 687.183 181.05C687.084 164.496 686.684 162.559 688.468 158.151C689.36 155.947 690.643 154.129 692.314 152.438C700.284 144.372 720.863 146.964 720.993 147.093C723.062 147.081 724.733 145.389 724.721 143.32C724.708 141.251 723.017 139.58 720.948 139.592C708.661 139.536 701.814 140.741 695.309 134.314ZM688.541 148.71C685.585 151.702 680.929 151.73 677.937 148.773C674.944 145.816 674.917 141.161 677.873 138.169C680.83 135.176 685.486 135.148 688.478 138.105C691.47 141.062 691.498 145.717 688.541 148.71Z" fill="#FF9E0D"/>
<path d="M679.954 140.226C678.155 142.047 678.172 144.892 679.993 146.692C681.814 148.491 684.66 148.474 686.459 146.653C688.259 144.832 688.242 141.987 686.421 140.187C684.599 138.387 681.754 138.404 679.954 140.226Z" fill="#FF9E0D"/>
<circle cx="485.349" cy="158.633" r="38.2846" fill="#017AFF"/>
<path fill-rule="evenodd" clip-rule="evenodd" d="M505.666 137.503C505.895 136.924 504.686 135.864 504.135 136.161L476.702 150.93C476.644 150.947 476.596 150.976 476.558 151.016C476.502 151.065 476.468 151.133 476.457 151.216L465.037 180.01C464.808 180.588 466.016 181.648 466.567 181.352L494.001 166.583C494.059 166.565 494.107 166.537 494.144 166.497C494.201 166.447 494.235 166.379 494.245 166.297L505.666 137.503ZM482.647 161.86C480.934 160.366 480.756 157.766 482.249 156.052C483.743 154.339 486.343 154.16 488.057 155.654C489.77 157.148 489.949 159.748 488.455 161.461C486.961 163.175 484.361 163.353 482.647 161.86Z" fill="white"/>
<rect x="131.307" y="142.367" width="10.3655" height="22.8631" rx="1" transform="rotate(-30.688 131.307 142.367)" fill="#DB23DF"/>
<path d="M121.546 125.918C120.086 123.457 120.897 120.277 123.358 118.816V118.816C125.82 117.355 129 118.167 130.46 120.628L138.27 133.787C138.349 133.92 138.305 134.092 138.172 134.172L129.74 139.175C129.607 139.254 129.435 139.21 129.356 139.077L121.546 125.918Z" fill="#DB23DF"/>
<path d="M130.854 131.448L151.759 166.674" stroke="#DB23DF" stroke-width="2"/>
<path d="M132.449 107.856C130.988 105.394 131.8 102.215 134.261 100.754V100.754C136.723 99.293 139.902 100.104 141.363 102.566L149.173 115.725C149.252 115.858 149.208 116.03 149.075 116.109L140.643 121.113C140.51 121.192 140.338 121.148 140.259 121.015L132.449 107.856Z" fill="#DB23DF"/>
<rect x="141.912" y="123.795" width="10.3655" height="33.837" rx="1" transform="rotate(-30.688 141.912 123.795)" fill="#DB23DF"/>
<path d="M140.922 111.975L167.007 155.927" stroke="#DB23DF" stroke-width="2"/>
<path d="M144.324 87.4474C142.992 84.9139 143.965 81.7802 146.499 80.4481V80.4481C149.032 79.116 152.166 80.0899 153.498 82.6234L160.619 96.167C160.692 96.3042 160.639 96.4738 160.502 96.546L151.824 101.109C151.687 101.181 151.517 101.128 151.445 100.991L144.324 87.4474Z" fill="#DB23DF"/>
<rect x="153.441" y="104.79" width="10.3655" height="44.5061" rx="1" transform="rotate(-27.7354 153.441 104.79)" fill="#DB23DF"/>
<path d="M152.312 91.5024L181.816 147.616" stroke="#DB23DF" stroke-width="2"/>
<path d="M163.403 78.1687C162.168 75.5864 163.261 72.492 165.843 71.2574V71.2574C168.426 70.0227 171.52 71.1153 172.755 73.6977L179.355 87.5027C179.422 87.6425 179.363 87.81 179.223 87.8769L170.377 92.1059C170.238 92.1727 170.07 92.1136 170.003 91.9737L163.403 78.1687Z" fill="#DB23DF"/>
<path d="M211.492 94.3109C211.495 91.4486 213.818 89.1309 216.68 89.1342V89.1342C219.543 89.1375 221.86 91.4605 221.857 94.3229L221.839 109.625C221.839 109.78 221.713 109.905 221.558 109.905L211.754 109.894C211.599 109.893 211.474 109.768 211.474 109.613L211.492 94.3109Z" fill="#DB23DF"/>
<rect x="171.855" y="95.8462" width="10.3655" height="44.5061" rx="1" transform="rotate(-25.5528 171.855 95.8462)" fill="#DB23DF"/>
<rect x="211.674" y="111.905" width="10.3655" height="20.8664" rx="1" transform="rotate(18.9512 211.674 111.905)" fill="#DB23DF"/>
<path d="M171.232 82.5247L198.578 139.721" stroke="#DB23DF" stroke-width="2"/>
<path d="M206.368 139.924L215.785 116.131C217.452 111.055 217.094 106.994 216.434 102.243" stroke="#DB23DF" stroke-width="2"/>
<path d="M145.405 166.494C145.135 166.011 145.308 165.401 145.792 165.132L201.661 134.052C201.953 133.89 202.306 133.884 202.603 134.036L213.231 139.485C213.481 139.613 213.666 139.84 213.74 140.112L218.072 156.009C221.453 168.412 215.952 181.524 204.735 187.804L193.077 194.33C179.583 201.884 162.521 197.068 154.967 183.575L145.405 166.494Z" fill="#DB23DF"/>
<path fill-rule="evenodd" clip-rule="evenodd" d="M99.4244 142.318C99.0727 145.439 96.4242 147.865 93.2091 147.865C89.9941 147.865 87.3456 145.439 86.9939 142.318C84.0257 143.007 81.2424 144.177 78.731 145.743C80.6879 148.199 80.5299 151.786 78.257 154.059C75.9841 156.332 72.3972 156.49 69.9416 154.533C68.3757 157.044 67.205 159.828 66.5166 162.796C69.6382 163.147 72.0645 165.796 72.0645 169.011C72.0645 172.226 69.6383 174.875 66.5167 175.226C67.2051 178.195 68.3758 180.978 69.9417 183.489C72.3973 181.533 75.9837 181.691 78.2564 183.963C80.5291 186.236 80.6873 189.823 78.7309 192.278C81.2423 193.844 84.0257 195.015 86.9939 195.703C87.3457 192.582 89.9942 190.157 93.2091 190.157C96.4241 190.157 99.0725 192.582 99.4244 195.703C102.393 195.015 105.176 193.844 107.688 192.278C105.731 189.822 105.89 186.236 108.162 183.963C110.435 181.69 114.021 181.532 116.477 183.488C118.043 180.977 119.213 178.194 119.901 175.226C116.78 174.875 114.354 172.226 114.354 169.011C114.354 165.796 116.78 163.147 119.902 162.796C119.213 159.828 118.043 157.044 116.477 154.533C114.021 156.49 110.435 156.331 108.162 154.059C105.889 151.786 105.731 148.199 107.688 145.744C105.176 144.178 102.393 143.007 99.4244 142.318ZM93.2082 178.55C87.94 178.55 83.6693 174.279 83.6693 169.011C83.6693 163.743 87.94 159.472 93.2082 159.472C98.4765 159.472 102.747 163.743 102.747 169.011C102.747 174.279 98.4765 178.55 93.2082 178.55Z" fill="#017AFF"/>
<circle cx="284.316" cy="87.3032" r="8.20019" transform="rotate(-45 284.316 87.3032)" fill="#15D860"/>
<path d="M284.315 44.1457C308.151 44.1457 327.473 63.468 327.473 87.3033M284.315 130.461C260.48 130.461 241.158 111.139 241.158 87.3033" stroke="#15D860" stroke-width="6" stroke-linejoin="round"/>
<path d="M284.314 56.7831C301.17 56.7831 314.835 70.4475 314.835 87.3034M284.314 117.824C267.458 117.824 253.794 104.159 253.794 87.3034" stroke="#15D860" stroke-width="6" stroke-linejoin="round"/>
<path d="M284.316 69.4549C294.173 69.4549 302.164 77.4459 302.164 87.3032M284.316 105.152C274.458 105.152 266.467 97.1606 266.467 87.3032" stroke="#15D860" stroke-width="6" stroke-linejoin="round"/>
<circle cx="218.065" cy="55.0532" r="20.0651" fill="#15D860"/>
<rect x="216.495" y="41.8672" width="3.14135" height="26.3726" rx="1.57067" fill="white"/>
<rect x="204.878" y="56.6238" width="3.14135" height="26.3726" rx="1.57067" transform="rotate(-90 204.878 56.6238)" fill="white"/>
<path fill-rule="evenodd" clip-rule="evenodd" d="M402.275 161.988L402.276 161.988L402.276 161.988C402.276 172.113 410.483 180.321 420.608 180.321C420.608 180.321 420.608 180.322 420.608 180.322C410.483 180.322 402.276 188.53 402.276 198.654C402.275 198.654 402.275 198.654 402.275 198.654L402.274 198.654C402.274 188.549 394.098 180.354 384 180.322C394.098 180.29 402.274 172.094 402.274 161.988L402.274 161.988L402.275 161.988Z" fill="#7C30F9"/>
<path fill-rule="evenodd" clip-rule="evenodd" d="M99.4849 45.1878C94.3252 39.5675 83.9449 39.8716 71.9699 44.9144C65.0324 33.9273 56.692 27.7393 49.2445 29.3977C41.797 31.056 36.8701 40.1985 35.2501 53.0915C22.2653 53.6057 12.7354 57.7348 10.4477 65.014C8.16016 72.2928 13.6142 81.1307 23.9696 88.9801C17.9228 100.482 16.7339 110.799 21.8939 116.42C27.0541 122.041 37.4358 121.736 49.4121 116.692C56.3497 127.68 64.6904 133.868 72.138 132.21C79.5855 130.551 84.5124 121.409 86.1324 108.516C99.1159 108.001 108.645 103.872 110.932 96.5936C113.22 89.3146 107.765 80.4765 97.4097 72.627C103.456 61.1253 104.645 50.8083 99.4849 45.1878Z" fill="#7C30F9"/>
<path d="M77.4739 77.2753C80.1965 89.5024 80.5775 100.94 79.0632 109.515C78.3051 113.807 77.09 117.281 75.5401 119.766C73.9953 122.244 72.2124 123.604 70.3133 124.027C68.4142 124.45 66.2227 123.975 63.7726 122.387C61.3144 120.794 58.7402 118.164 56.2325 114.599C51.2228 107.476 46.7148 96.9579 43.9921 84.7308C41.2695 72.5037 40.8885 61.0662 42.4028 52.4911C43.1609 48.1989 44.376 44.7254 45.9259 42.2396C47.4707 39.7621 49.2536 38.4018 51.1527 37.9789C53.0518 37.5561 55.2433 38.0314 57.6934 39.6193C60.1516 41.2126 62.7258 43.8423 65.2335 47.4074C70.2432 54.5296 74.7512 65.0482 77.4739 77.2753Z" stroke="#0C0C28" stroke-width="4"/>
<path d="M72.3311 93.6371C63.1035 102.109 53.3888 108.157 45.2054 111.133C41.1092 112.623 37.4935 113.307 34.5658 113.208C31.6478 113.109 29.5783 112.245 28.2626 110.812C26.9468 109.379 26.2626 107.243 26.4128 104.327C26.5635 101.402 27.5538 97.8575 29.3874 93.9033C33.0506 86.0036 39.9059 76.8402 49.1336 68.3688C58.3612 59.8974 68.0759 53.8487 76.2593 50.8726C80.3555 49.383 83.9712 48.6986 86.8989 48.798C89.8169 48.8971 91.8864 49.7609 93.2022 51.1941C94.5179 52.6274 95.2021 54.763 95.0519 57.6788C94.9012 60.6043 93.9109 64.1484 92.0773 68.1027C88.4141 76.0024 81.5588 85.1657 72.3311 93.6371Z" stroke="#0C0C28" stroke-width="4"/>
<path d="M55.5892 97.3653C43.6389 93.6096 33.5432 88.2208 26.8742 82.6218C23.536 79.8192 21.1354 77.0301 19.7577 74.445C18.3845 71.8683 18.0978 69.6442 18.6812 67.7881C19.2645 65.932 20.7719 64.2717 23.3722 62.9438C25.981 61.6116 29.5455 60.6972 33.8868 60.308C42.5598 59.5306 53.9231 60.8858 65.8734 64.6415C77.8237 68.3971 87.9194 73.7859 94.5884 79.3849C97.9266 82.1875 100.327 84.9766 101.705 87.5618C103.078 90.1384 103.365 92.3625 102.781 94.2186C102.198 96.0747 100.691 97.735 98.0904 99.0629C95.4815 100.395 91.9171 101.31 87.5758 101.699C78.9028 102.476 67.5394 101.121 55.5892 97.3653Z" stroke="#0C0C28" stroke-width="4"/>
<circle cx="60.6908" cy="80.8044" r="7.28249" transform="rotate(-12.5534 60.6908 80.8044)" fill="#0C0C28"/>
<path d="M29.4634 183.283L11.2904 187.914L15.9219 169.741" stroke="#00C2FF" stroke-width="4.01211" stroke-linejoin="round"/>
<path d="M41.4873 171.26L46.1188 153.087L27.9458 157.718" stroke="#00C2FF" stroke-width="4.01211" stroke-linejoin="round"/>
<path d="M20.7687 163.031L31.485 173.748M36.4342 178.697L36.8161 179.079" stroke="#00C2FF" stroke-width="4.01211" stroke-linecap="round" stroke-linejoin="round"/>
<rect x="141.892" y="40.5376" width="5.76329" height="5.76329" transform="rotate(18.2386 141.892 40.5376)" fill="#F4A727"/>
<rect x="138.284" y="51.4849" width="5.76329" height="5.76329" transform="rotate(18.2386 138.284 51.4849)" fill="#F4A727"/>
<rect x="145.562" y="47.8149" width="5.76329" height="5.76329" transform="rotate(18.2386 145.562 47.8149)" fill="#F4A727"/>
<rect x="134.614" y="44.2075" width="5.76329" height="5.76329" transform="rotate(18.2386 134.614 44.2075)" fill="#F4A727"/>
</svg>
