<svg width="415" height="291" viewBox="0 0 415 291" fill="none" xmlns="http://www.w3.org/2000/svg">
<path fill-rule="evenodd" clip-rule="evenodd" d="M366.387 188.439C380.136 181.881 391.44 171.531 400.299 157.388C409.158 143.144 413.587 128.353 413.587 113.018C413.587 97.6821 409.158 87.1686 400.299 81.4769L395.342 78.9723C387.344 76.0141 377.692 77.2311 366.387 82.6233C352.637 89.1814 341.333 99.5827 332.475 113.827C323.616 127.97 319.187 142.709 319.187 158.045C319.187 173.38 323.616 183.945 332.475 189.739C341.333 195.431 352.637 194.997 366.387 188.439ZM388.534 151.498C382.905 161.135 375.522 168.133 366.387 172.49C357.159 176.892 349.731 176.959 344.102 172.691C338.565 168.38 335.797 160.857 335.797 150.122C335.797 139.387 338.565 129.223 344.102 119.63C349.731 109.993 357.159 102.974 366.387 98.5724C375.522 94.2149 382.905 94.1698 388.534 98.4371C394.163 102.704 396.977 110.205 396.977 120.94C396.977 131.573 394.163 141.759 388.534 151.498Z" fill="#0C54E1"/>
<path d="M366.387 172.49C375.522 168.133 382.905 161.135 388.534 151.498C394.163 141.759 396.977 131.573 396.977 120.94C396.977 110.205 394.163 102.704 388.534 98.4371C382.905 94.1698 375.522 94.2149 366.387 98.5724C357.159 102.974 349.731 109.993 344.102 119.63C338.565 129.223 335.797 139.387 335.797 150.122C335.797 160.857 338.565 168.38 344.102 172.691C349.731 176.959 357.159 176.892 366.387 172.49Z" fill="#0C54E1"/>
<path d="M332.475 189.739C323.616 183.945 319.187 173.38 319.187 158.045C319.187 142.709 323.616 127.97 332.475 113.827C341.333 99.5827 352.637 89.1814 366.387 82.6233C377.692 77.2311 387.344 76.0141 395.342 78.9723L249.174 5.11465C240.315 -0.679252 229.011 -0.297124 215.262 6.26103C201.512 12.8192 190.208 23.2206 181.35 37.4652C172.491 51.6077 168.062 66.3466 168.062 81.6823C168.062 97.0179 172.491 107.583 181.35 113.377L185.938 115.695L332.475 189.739Z" fill="#0C54E1"/>
<path d="M332.475 189.739C341.333 195.431 352.637 194.997 366.387 188.439C380.136 181.881 391.44 171.531 400.299 157.388C409.158 143.144 413.587 128.353 413.587 113.018C413.587 97.6821 409.158 87.1686 400.299 81.4769M332.475 189.739C323.616 183.945 319.187 173.38 319.187 158.045C319.187 142.709 323.616 127.97 332.475 113.827C341.333 99.5827 352.637 89.1814 366.387 82.6233C377.692 77.2311 387.344 76.0141 395.342 78.9723M332.475 189.739L185.938 115.695M400.299 81.4769L395.342 78.9723M400.299 81.4769C398.724 80.4468 397.072 79.612 395.342 78.9723M181.35 113.377C172.491 107.583 168.062 97.0179 168.062 81.6823C168.062 66.3467 172.491 51.6077 181.35 37.4652C190.208 23.2206 201.512 12.8192 215.262 6.26103C229.011 -0.297124 240.315 -0.679252 249.174 5.11465L395.342 78.9723M181.35 113.377C182.812 114.317 184.342 115.089 185.938 115.695M181.35 113.377L185.938 115.695M366.387 172.49C375.522 168.133 382.905 161.135 388.534 151.498C394.163 141.759 396.977 131.573 396.977 120.94C396.977 110.205 394.163 102.704 388.534 98.4371C382.905 94.1698 375.522 94.2149 366.387 98.5724C357.159 102.974 349.731 109.993 344.102 119.63C338.565 129.223 335.797 139.387 335.797 150.122C335.797 160.857 338.565 168.38 344.102 172.691C349.731 176.959 357.159 176.892 366.387 172.49Z" stroke="#064ACF"/>
<path d="M272.688 231.557V145.064L244.727 158.4L121.569 96.1667V155.195L272.688 231.557Z" fill="#3772E8"/>
<path d="M272.688 231.557L288.882 223.833V137.339L316.843 124.003V108.207L244.727 142.604V158.4L272.688 145.064V231.557Z" fill="#3772E8"/>
<path d="M244.727 142.604L316.843 108.207L165.724 31.845L93.6084 66.2424L244.727 142.604Z" fill="#3772E8"/>
<path d="M244.727 158.4V142.604L93.6084 66.2424V82.0381L121.569 96.1667L244.727 158.4Z" fill="#3772E8"/>
<path d="M272.688 231.557L288.882 223.833V137.339L316.843 124.003V108.207M272.688 231.557V145.064L244.727 158.4M272.688 231.557L121.569 155.195V96.1667M244.727 158.4V142.604M244.727 158.4L121.569 96.1667M244.727 142.604L316.843 108.207M244.727 142.604L93.6084 66.2424M316.843 108.207L165.724 31.845L93.6084 66.2424M93.6084 66.2424V82.0381L121.569 96.1667" stroke="#1E62E9"/>
<path d="M168.382 179.494V221.36L216.413 198.451L65.294 122.088L59.8017 124.627L168.382 179.494Z" fill="#A4C0F7"/>
<path d="M152.187 187.218L168.382 179.494L59.8017 124.627L17.2631 103.131L1.06869 110.856L152.187 187.218Z" fill="#A4C0F7"/>
<path d="M152.187 289.507V187.218L1.06869 110.856L1.06836 213.145L152.187 289.507Z" fill="#A4C0F7"/>
<path d="M216.413 258.873L232.608 251.149V148.859L216.413 156.584V198.451L168.382 221.36V179.494L152.187 187.218V289.507L168.382 281.783V237.156L170.981 235.916L216.413 214.246V258.873Z" fill="#A4C0F7"/>
<path d="M216.413 258.873V214.246L170.981 235.916L216.413 258.873Z" fill="#A4C0F7"/>
<path d="M216.413 198.451V156.584L65.294 80.222V122.088L216.413 198.451Z" fill="#A4C0F7"/>
<path d="M216.413 156.584L232.608 148.859L81.4888 72.4974L65.294 80.222L216.413 156.584Z" fill="#A4C0F7"/>
<path d="M216.413 258.873L232.608 251.149V148.859M216.413 258.873V214.246L170.981 235.916M216.413 258.873L170.981 235.916M152.187 289.507L168.382 281.783V237.156L170.981 235.916M152.187 289.507V187.218M152.187 289.507L1.06836 213.145L1.06869 110.856M152.187 187.218L168.382 179.494M152.187 187.218L1.06869 110.856M168.382 179.494V221.36L216.413 198.451M168.382 179.494L59.8017 124.627M216.413 198.451V156.584M216.413 198.451L65.294 122.088M216.413 156.584L232.608 148.859M216.413 156.584L65.294 80.222M232.608 148.859L81.4888 72.4974L65.294 80.222M1.06869 110.856L17.2631 103.131L59.8017 124.627M65.294 80.222V122.088M65.294 122.088L59.8017 124.627" stroke="#8AB0FA"/>
</svg>
