<svg width="24" height="24" viewBox="0 0 24 24" fill="none" xmlns="http://www.w3.org/2000/svg">
<path d="M15.959 0H7.25409C3.24838 0 0 3.24838 0 7.25409V15.959C0 19.9647 3.24838 23.2131 7.25409 23.2131H15.959C19.9647 23.2131 23.2131 19.9647 23.2131 15.959V7.25409C23.2131 3.24838 19.9647 0 15.959 0ZM21.0369 15.959C21.0369 18.7591 18.7591 21.0369 15.959 21.0369H7.25409C4.45401 21.0369 2.17623 18.7591 2.17623 15.959V7.25409C2.17623 4.45401 4.45401 2.17623 7.25409 2.17623H15.959C18.7591 2.17623 21.0369 4.45401 21.0369 7.25409V15.959Z" fill="#9CBDFD"/>
<path d="M11.6065 5.80371C8.40164 5.80371 5.80322 8.40212 5.80322 11.607C5.80322 14.8118 8.40164 17.4103 11.6065 17.4103C14.8113 17.4103 17.4098 14.8118 17.4098 11.607C17.4098 8.40212 14.8113 5.80371 11.6065 5.80371ZM11.6065 15.234C9.60727 15.234 7.97945 13.6062 7.97945 11.607C7.97945 9.6063 9.60727 7.97994 11.6065 7.97994C13.6057 7.97994 15.2335 9.6063 15.2335 11.607C15.2335 13.6062 13.6057 15.234 11.6065 15.234Z" fill="#9CBDFD"/>
<path d="M17.8446 6.14179C18.2716 6.14179 18.6179 5.79557 18.6179 5.3685C18.6179 4.94143 18.2716 4.59521 17.8446 4.59521C17.4175 4.59521 17.0713 4.94143 17.0713 5.3685C17.0713 5.79557 17.4175 6.14179 17.8446 6.14179Z" fill="#9CBDFD"/>
</svg>
