<svg width="97" height="97" viewBox="0 0 97 97" fill="none" xmlns="http://www.w3.org/2000/svg">
<path d="M66.0974 22.8121C71.6622 22.8121 76.1876 18.2867 76.1876 12.722C76.1876 7.15726 71.6622 2.63184 66.0974 2.63184C60.5327 2.63184 56.0073 7.15726 56.0073 12.722C56.0073 18.2867 60.5327 22.8121 66.0974 22.8121ZM66.0974 5.99521C69.8073 5.99521 72.8242 9.01216 72.8242 12.722C72.8242 16.4318 69.8073 19.4487 66.0974 19.4487C65.9007 19.4487 65.7174 19.4067 65.5257 19.3915C66.8979 18.1589 67.7791 16.3897 67.7791 14.4036H64.4158C64.4158 16.0618 63.2066 17.4357 61.6242 17.7098C60.2519 16.4772 59.3707 14.708 59.3707 12.722C59.3707 9.01216 62.3876 5.99521 66.0974 5.99521Z" fill="#15D860"/>
<path d="M13.9651 42.9918C19.5298 42.9918 24.0553 38.4664 24.0553 32.9016C24.0553 27.3369 19.5298 22.8115 13.9651 22.8115C8.40042 22.8115 3.875 27.3369 3.875 32.9016C3.875 38.4664 8.40042 42.9918 13.9651 42.9918ZM13.9651 26.1749C17.6749 26.1749 20.6919 29.1918 20.6919 32.9016C20.6919 34.8877 19.8107 36.6569 18.4384 37.8895C16.8559 37.6154 15.6468 36.2415 15.6468 34.5833H12.2834C12.2834 36.5694 13.1646 38.3385 14.5369 39.5712C14.3452 39.5864 14.1619 39.6284 13.9651 39.6284C10.2553 39.6284 7.23837 36.6115 7.23837 32.9016C7.23837 29.1918 10.2553 26.1749 13.9651 26.1749Z" fill="#15D860"/>
<path d="M95.2176 4.40035L85.1275 1.03698C84.6129 0.862082 84.0529 0.94953 83.6123 1.26569C83.1734 1.58353 82.9144 2.0914 82.9144 2.63122V16.0847V24.4932H59.3708C58.9773 24.4932 58.5955 24.6311 58.2928 24.8816L48.2027 33.2901C48.0261 33.4397 47.8798 33.623 47.7756 33.8299L43.0063 43.3701L32.3881 47.9191L22.9051 44.7592C22.7335 44.7037 22.5536 44.6734 22.3737 44.6734H8.92016C4.28374 44.6734 0.511719 48.4454 0.511719 53.0818V71.5804C0.511719 72.5104 1.26343 73.2621 2.19341 73.2621H7.23847V93.4424H0.511719V96.8057H8.92016H17.3286H24.0553C24.9853 96.8057 25.737 96.054 25.737 95.124V86.7156H29.1004H37.5089H49.2807C50.2106 86.7156 50.9623 85.9639 50.9623 85.0339V76.6255H61.0525H69.4609C70.3909 76.6255 71.1426 75.8738 71.1426 74.9438V66.5353H81.2327H89.6412H94.6862V63.172H91.3229V49.7185C91.3229 45.0821 87.5508 41.31 82.9144 41.31H76.1877V34.5833H84.5961C89.2325 34.5833 93.0045 30.8113 93.0045 26.1748V16.0847C93.0045 15.1547 92.2528 14.403 91.3229 14.403H86.2778V10.5705L95.2176 7.59051C95.9055 7.36012 96.3679 6.7194 96.3679 5.99459C96.3679 5.26978 95.9055 4.62906 95.2176 4.40035ZM68.6587 27.8565L67.7792 30.0562L66.8997 27.8565H68.6587ZM24.0553 83.3522C23.1254 83.3522 22.3737 84.1039 22.3737 85.0339V93.4424H19.0103V73.2621H27.4187V83.3522H24.0553ZM30.7821 83.3522V71.5804C30.7821 70.6504 30.0304 69.8987 29.1004 69.8987H17.3286C16.3986 69.8987 15.6469 70.6504 15.6469 71.5804V93.4424H10.6018V54.7635H7.23847V69.8987H3.87509V53.0818C3.87509 50.3003 6.13865 48.0368 8.92016 48.0368H13.9652V59.8086H17.3286V48.0368H22.1012L31.9324 51.3127C32.3225 51.4456 32.7497 51.4237 33.1264 51.2639L43.6117 46.7705L44.6325 48.3008L45.142 49.066L33.8613 54.7047L22.6108 53.097C22.1281 53.0263 21.6388 53.1727 21.2705 53.4905C20.9039 53.8134 20.692 54.2758 20.692 54.7635V63.172C20.692 64.1019 21.4437 64.8537 22.3737 64.8537H30.7821C33.5636 64.8537 35.8272 67.1172 35.8272 69.8987V83.3522H30.7821ZM49.2807 73.2621C48.3507 73.2621 47.599 74.0138 47.599 74.9438V83.3522H39.1905V69.8987C39.1905 65.2623 35.4185 61.4903 30.7821 61.4903H24.0553V56.7025L33.9067 58.1101C34.2464 58.1589 34.5894 58.1017 34.8972 57.9487L48.3507 51.2219C48.5962 51.0991 48.7896 50.9125 48.946 50.6955C48.9595 50.677 48.9847 50.6703 48.9981 50.6518L55.5651 40.8022L59.3708 37.9467V73.2621H49.2807ZM79.551 63.172H71.1426V53.0818H79.551V63.172ZM89.6412 26.1748C89.6412 28.9564 87.3776 31.2199 84.5961 31.2199H74.506C73.576 31.2199 72.8243 31.9716 72.8243 32.9016V42.9917C72.8243 43.9217 73.576 44.6734 74.506 44.6734H82.9144C85.6959 44.6734 87.9595 46.937 87.9595 49.7185V63.172H82.9144V51.4002C82.9144 50.4702 82.1627 49.7185 81.2327 49.7185H69.4609C68.5309 49.7185 67.7792 50.4702 67.7792 51.4002V64.8537V73.2621H62.7342V34.5833C62.7342 33.9459 62.3743 33.3641 61.8042 33.0782C61.2358 32.7956 60.5513 32.8545 60.0435 33.2379L53.3167 38.283C53.1637 38.3957 53.0308 38.5352 52.9266 38.695L47.599 46.6864L46.1763 44.5506L50.626 35.6495L59.9796 27.8565H63.2774L66.2169 35.2072C66.4742 35.8462 67.0914 36.265 67.7792 36.265C68.467 36.265 69.0842 35.8462 69.3415 35.2072L72.2811 27.8565H84.5961C85.5261 27.8565 86.2778 27.1048 86.2778 26.1748V17.7664H89.6412V26.1748ZM86.2778 7.02379V4.9654L89.3687 5.99459L86.2778 7.02379Z" fill="#15D860"/>
<path d="M44.2354 9.3584H40.8721V12.7218H44.2354V9.3584Z" fill="#15D860"/>
<path d="M37.5084 9.3584H34.145V12.7218H37.5084V9.3584Z" fill="#15D860"/>
<path d="M30.7818 9.3584H27.4185V12.7218H30.7818V9.3584Z" fill="#15D860"/>
</svg>
