<svg width="93" height="93" viewBox="0 0 93 93" fill="none" xmlns="http://www.w3.org/2000/svg">
<path d="M53.7865 45.1113H50.7983V64.5343H53.7865V45.1113Z" fill="#C237F2"/>
<path d="M41.8339 45.1113H38.8457V64.5343H41.8339V45.1113Z" fill="#C237F2"/>
<path d="M58.269 43.6177V52.5821C58.269 55.0533 60.2801 57.0643 62.7513 57.0643H68.7276V54.0762H62.7513C61.9265 54.0762 61.2572 53.4068 61.2572 52.5821V43.6177H58.269Z" fill="#C237F2"/>
<path d="M34.3638 52.5821V43.6177H31.3756V52.5821C31.3756 53.4068 30.7063 54.0762 29.8816 54.0762H23.9053V57.0643H29.8816C32.3528 57.0643 34.3638 55.0533 34.3638 52.5821Z" fill="#C237F2"/>
<path d="M53.7865 67.5225H50.7983V70.5106H53.7865V67.5225Z" fill="#C237F2"/>
<path d="M41.8339 67.5225H38.8457V70.5106H41.8339V67.5225Z" fill="#C237F2"/>
<path d="M74.704 54.0757H71.7158V57.0638H74.704V54.0757Z" fill="#C237F2"/>
<path d="M27.0637 25.7959C26.9502 26.2516 26.8934 26.7162 26.8934 27.1824C26.8934 29.3518 28.0782 31.3225 29.9219 32.3713C29.898 32.6313 29.8816 32.8927 29.8816 33.1587C29.8816 38.1026 33.9021 42.1231 38.846 42.1231C41.9627 42.1231 44.7088 40.523 46.3164 38.1041C47.924 40.5245 50.6701 42.1231 53.7868 42.1231C58.7306 42.1231 62.7512 38.1026 62.7512 33.1587C62.7512 32.8927 62.7348 32.6313 62.7109 32.3713C64.5546 31.3225 65.7394 29.3518 65.7394 27.1824C65.7394 26.7162 65.6826 26.2516 65.569 25.7959C67.5218 24.4124 68.7275 22.1489 68.7275 19.712C68.7275 17.2976 67.5397 15.0401 65.5974 13.6461C65.6841 13.1904 65.7394 12.7227 65.7394 12.2417C65.7394 8.43326 62.8648 5.31812 59.1774 4.86392C58.0434 2.17907 55.3854 0.289062 52.2927 0.289062C49.8409 0.289062 47.679 1.49329 46.3164 3.32353C44.9538 1.49329 42.7919 0.289062 40.3401 0.289062C37.2474 0.289062 34.5894 2.17907 33.4554 4.86392C29.768 5.31812 26.8934 8.43326 26.8934 12.2417C26.8934 12.7227 26.9487 13.1904 27.0354 13.6461C25.0931 15.0401 23.9053 17.2976 23.9053 19.712C23.9053 22.1489 25.111 24.4124 27.0637 25.7959ZM52.2927 3.27721C54.7639 3.27721 56.7749 5.28823 56.7749 7.75943C56.7749 10.2306 54.7639 12.2417 52.2927 12.2417V15.2298C56.3207 15.2298 59.5912 12.019 59.7362 8.02687C61.4857 8.63795 62.7512 10.2859 62.7512 12.2417C62.7512 14.7129 60.7402 16.7239 58.269 16.7239V19.712C60.7984 19.712 63.0306 18.4406 64.3827 16.5102C65.2344 17.3454 65.7394 18.4944 65.7394 19.712C65.7394 21.4541 64.7084 23.0498 63.1098 23.7789L61.6829 24.4318L62.4016 25.8258C62.6347 26.2725 62.7512 26.7282 62.7512 27.1824C62.7512 27.9907 62.3986 28.7213 61.8518 29.2711C60.401 26.2725 57.3352 24.1942 53.7868 24.1942V27.1824C57.0827 27.1824 59.7631 29.8628 59.7631 33.1587C59.7631 36.4546 57.0827 39.135 53.7868 39.135C50.4908 39.135 47.8105 36.4546 47.8105 33.1587V7.75943C47.8105 5.28823 49.8215 3.27721 52.2927 3.27721ZM28.25 16.5102C29.6022 18.4406 31.8343 19.712 34.3638 19.712V16.7239C31.8926 16.7239 29.8816 14.7129 29.8816 12.2417C29.8816 10.2859 31.1471 8.63795 32.8966 8.02687C33.0415 12.019 36.3121 15.2298 40.3401 15.2298V12.2417C37.8689 12.2417 35.8579 10.2306 35.8579 7.75943C35.8579 5.28823 37.8689 3.27721 40.3401 3.27721C42.8113 3.27721 44.8223 5.28823 44.8223 7.75943V33.1587C44.8223 36.4546 42.1419 39.135 38.846 39.135C35.5501 39.135 32.8697 36.4546 32.8697 33.1587C32.8697 29.8628 35.5501 27.1824 38.846 27.1824V24.1942C35.2976 24.1942 32.2317 26.2725 30.781 29.2711C30.2342 28.7213 29.8816 27.9907 29.8816 27.1824C29.8816 26.7282 29.9981 26.2725 30.2297 25.8243L30.9483 24.4303L29.5215 23.7774C27.9243 23.0498 26.8934 21.4541 26.8934 19.712C26.8934 18.4944 27.3984 17.3454 28.25 16.5102Z" fill="#C237F2"/>
<path d="M83.6681 16.7236H71.7155V19.7118H80.6799V73.4984H47.8103V42.1229H44.8221V73.4984H11.9525V19.7118H20.917V16.7236H8.96436V76.4866H83.6681V16.7236Z" fill="#C237F2"/>
<path d="M86.6563 30.1704V33.1586H89.6445V82.463H52.2926V83.9571C52.2926 87.253 49.6122 89.9334 46.3163 89.9334C43.0204 89.9334 40.34 87.253 40.34 83.9571V82.463H2.98815V33.1586H5.9763V30.1704H0V85.4512H37.4759C38.19 89.6854 41.8819 92.9215 46.3163 92.9215C50.7507 92.9215 54.4426 89.6854 55.1567 85.4512H92.6326V30.1704H86.6563Z" fill="#C237F2"/>
<path d="M20.9169 54.0757H17.9287V57.0638H20.9169V54.0757Z" fill="#C237F2"/>
</svg>
