<svg width="103" height="103" viewBox="0 0 103 103" fill="none" xmlns="http://www.w3.org/2000/svg">
<path d="M91.8251 62.2058C91.6736 61.9536 91.4594 61.7449 91.2034 61.6C90.9473 61.4551 90.6581 61.379 90.364 61.3789H11.935C11.6429 61.3821 11.3566 61.4615 11.1046 61.6093C10.8525 61.757 10.6433 61.9679 10.4977 62.2212L10.4738 62.2058L0.243976 79.2556C0.0885613 79.5143 0.00458912 79.8096 0.000634707 80.1113C-0.00331971 80.4131 0.0728856 80.7105 0.221468 80.9731C0.37005 81.2358 0.585684 81.4543 0.846349 81.6064C1.10701 81.7584 1.40337 81.8386 1.70514 81.8386H10.23V100.593C10.23 101.046 10.4097 101.479 10.7294 101.799C11.0491 102.119 11.4828 102.298 11.935 102.298H90.364C90.8161 102.298 91.2498 102.119 91.5696 101.799C91.8893 101.479 92.0689 101.046 92.0689 100.593V81.8386H100.594C100.896 81.8386 101.192 81.7584 101.453 81.6064C101.713 81.4543 101.929 81.2358 102.077 80.9731C102.226 80.7105 102.302 80.4131 102.298 80.1113C102.294 79.8096 102.21 79.5143 102.055 79.2556L91.8251 62.2058ZM4.71784 78.4287L10.23 69.2406V78.4287H4.71784ZM37.5097 98.8884H13.64V64.7889H37.5097V98.8884ZM88.659 98.8884H40.9196V69.2389L47.9833 81.0117C48.1348 81.2639 48.349 81.4726 48.6051 81.6175C48.8611 81.7624 49.1503 81.8386 49.4445 81.8386H88.659V98.8884ZM50.4095 78.4287L42.2256 64.7889H89.3989L97.5828 78.4287H50.4095Z" fill="#0E5EFA"/>
<path d="M85.2491 92.0688H78.4292V95.4788H85.2491V92.0688Z" fill="#0E5EFA"/>
<path d="M75.0193 92.0688H71.6094V95.4788H75.0193V92.0688Z" fill="#0E5EFA"/>
<path d="M86.9539 13.64H90.3639V10.2301H93.7738V6.82011H90.3639V3.41016H86.9539V6.82011H83.5439V10.2301H86.9539V13.64Z" fill="#0E5EFA"/>
<path d="M3.40995 44.329H6.81991V40.919H10.2299V37.5091H6.81991V34.0991H3.40995V37.5091H0V40.919H3.40995V44.329Z" fill="#0E5EFA"/>
<path d="M13.6403 13.64C14.652 13.64 15.6409 13.34 16.482 12.778C17.3232 12.216 17.9788 11.4171 18.3659 10.4825C18.753 9.54786 18.8543 8.51942 18.657 7.52722C18.4596 6.53502 17.9725 5.62362 17.2571 4.90829C16.5418 4.19295 15.6304 3.7058 14.6382 3.50844C13.646 3.31108 12.6176 3.41237 11.6829 3.79951C10.7483 4.18665 9.94945 4.84224 9.38741 5.68339C8.82538 6.52453 8.52539 7.51345 8.52539 8.52509C8.52539 9.88165 9.06428 11.1827 10.0235 12.1419C10.9828 13.1011 12.2838 13.64 13.6403 13.64ZM13.6403 6.82011C13.9775 6.82011 14.3072 6.92011 14.5876 7.10745C14.8679 7.2948 15.0865 7.56108 15.2155 7.87262C15.3446 8.18417 15.3783 8.52698 15.3125 8.85771C15.2468 9.18845 15.0844 9.49225 14.8459 9.73069C14.6075 9.96914 14.3037 10.1315 13.9729 10.1973C13.6422 10.2631 13.2994 10.2293 12.9879 10.1003C12.6763 9.97124 12.41 9.75271 12.2227 9.47232C12.0353 9.19194 11.9353 8.8623 11.9353 8.52509C11.9353 8.0729 12.115 7.63923 12.4347 7.31949C12.7545 6.99974 13.1881 6.82011 13.6403 6.82011Z" fill="#0E5EFA"/>
<path d="M92.0684 51.1491C92.0684 52.1607 92.3683 53.1497 92.9304 53.9908C93.4924 54.832 94.2913 55.4876 95.2259 55.8747C96.1605 56.2618 97.189 56.3631 98.1812 56.1658C99.1734 55.9684 100.085 55.4812 100.8 54.7659C101.515 54.0506 102.003 53.1392 102.2 52.147C102.397 51.1548 102.296 50.1263 101.909 49.1917C101.522 48.2571 100.866 47.4582 100.025 46.8962C99.1838 46.3342 98.1949 46.0342 97.1833 46.0342C95.8267 46.0342 94.5257 46.5731 93.5665 47.5323C92.6073 48.4915 92.0684 49.7925 92.0684 51.1491ZM97.1833 49.4441C97.5205 49.4441 97.8501 49.5441 98.1305 49.7315C98.4109 49.9188 98.6294 50.1851 98.7585 50.4966C98.8875 50.8082 98.9213 51.151 98.8555 51.4817C98.7897 51.8125 98.6273 52.1163 98.3889 52.3547C98.1504 52.5932 97.8467 52.7555 97.5159 52.8213C97.1852 52.8871 96.8424 52.8533 96.5308 52.7243C96.2193 52.5953 95.953 52.3767 95.7657 52.0963C95.5783 51.816 95.4783 51.4863 95.4783 51.1491C95.4783 50.6969 95.6579 50.2633 95.9777 49.9435C96.2974 49.6238 96.7311 49.4441 97.1833 49.4441Z" fill="#0E5EFA"/>
<path d="M52.2421 22.277L30.0774 30.8019C29.7556 30.9257 29.4788 31.1441 29.2837 31.4284C29.0886 31.7127 28.9843 32.0495 28.9845 32.3943V40.2133L24.3691 44.8287L26.78 47.2396L28.9845 45.035V47.7391H32.3945V45.035L34.599 47.2396L37.0098 44.8287L32.3945 40.2133V34.8768L39.2144 37.5092V47.7391C39.2142 48.0559 39.3024 48.3666 39.4689 48.6361C39.6355 48.9056 39.8738 49.1234 40.1572 49.2651C40.4505 49.41 47.3983 52.854 52.8542 52.854C58.3101 52.854 65.2579 49.41 65.5512 49.2651C65.8346 49.1234 66.0729 48.9056 66.2395 48.6361C66.406 48.3666 66.4942 48.0559 66.494 47.7391V37.5092L75.631 33.9953C75.9534 33.872 76.2307 33.6537 76.4264 33.3694C76.6221 33.085 76.7268 32.748 76.7268 32.4028C76.7268 32.0577 76.6221 31.7206 76.4264 31.4363C76.2307 31.152 75.9534 30.9337 75.631 30.8104L53.4663 22.2855C53.0727 22.1344 52.6377 22.1314 52.2421 22.277ZM63.0841 46.653C59.8728 48.1994 56.4058 49.1454 52.8542 49.4441C49.3028 49.1439 45.8361 48.1981 42.6243 46.653V38.8101L52.2421 42.5099C52.6364 42.66 53.072 42.66 53.4663 42.5099L63.0841 38.8118V46.653ZM70.2688 32.3943L52.8542 39.0932L35.4396 32.3943L52.8542 25.6955L70.2688 32.3943Z" fill="#0E5EFA"/>
<path d="M52.8543 0H49.4443V6.81991H52.8543V0Z" fill="#0E5EFA"/>
<path d="M43.0867 0.838142L39.793 1.7207L41.5581 8.30823L44.8519 7.42567L43.0867 0.838142Z" fill="#0E5EFA"/>
<path d="M33.871 4.17041L30.918 5.87549L34.3281 11.7816L37.2812 10.0765L33.871 4.17041Z" fill="#0E5EFA"/>
<path d="M25.8311 9.77972L23.4199 12.1909L28.2435 17.0145L30.6547 14.6033L25.8311 9.77972Z" fill="#0E5EFA"/>
<path d="M19.5172 17.2782L17.8125 20.2314L23.719 23.6409L25.4237 20.6876L19.5172 17.2782Z" fill="#0E5EFA"/>
<path d="M15.3596 26.153L14.4771 29.4468L21.0646 31.2119L21.9471 27.9181L15.3596 26.153Z" fill="#0E5EFA"/>
<path d="M20.4596 35.8042H13.6396V39.2142H20.4596V35.8042Z" fill="#0E5EFA"/>
<path d="M21.0656 43.8057L14.478 45.5708L15.3606 48.8646L21.9481 47.0994L21.0656 43.8057Z" fill="#0E5EFA"/>
<path d="M23.719 51.3777L17.8125 54.7871L19.5172 57.7404L25.4237 54.3309L23.719 51.3777Z" fill="#0E5EFA"/>
<path d="M78.5811 51.377L76.876 54.3301L82.7821 57.7402L84.4872 54.7872L78.5811 51.377Z" fill="#0E5EFA"/>
<path d="M81.2351 43.8073L80.3525 47.1011L86.9401 48.8662L87.8226 45.5724L81.2351 43.8073Z" fill="#0E5EFA"/>
<path d="M88.6588 35.8042H81.8389V39.2142H88.6588V35.8042Z" fill="#0E5EFA"/>
<path d="M86.9401 26.1519L80.3525 27.917L81.2351 31.2108L87.8226 29.4456L86.9401 26.1519Z" fill="#0E5EFA"/>
<path d="M82.7811 17.2783L76.875 20.6885L78.5801 23.6415L84.4862 20.2314L82.7811 17.2783Z" fill="#0E5EFA"/>
<path d="M76.4677 9.78039L71.644 14.604L74.0552 17.0152L78.8789 12.1916L76.4677 9.78039Z" fill="#0E5EFA"/>
<path d="M68.427 4.1721L65.0176 10.0786L67.9708 11.7833L71.3803 5.87682L68.427 4.1721Z" fill="#0E5EFA"/>
<path d="M59.2129 0.83679L57.4478 7.42432L60.7415 8.30688L62.5066 1.71935L59.2129 0.83679Z" fill="#0E5EFA"/>
</svg>
