<svg width="26" height="15" viewBox="0 0 26 15" fill="none" xmlns="http://www.w3.org/2000/svg">
<path d="M14.1818 14.6709C14.8143 14.6709 15.0729 14.2492 15.0656 13.7206C15.0334 11.7296 15.8072 10.6578 17.2041 12.0547C18.7496 13.6001 19.0695 14.6709 20.9462 14.6709H24.2697C25.1089 14.6709 25.4392 14.4009 25.4392 13.9771C25.4392 13.0808 23.9633 11.499 22.7129 10.3379C20.9618 8.71245 20.8797 8.67402 22.3878 6.7173C24.2583 4.28801 26.7052 1.17532 24.5408 1.17532H20.4061C19.6043 1.17532 19.5462 1.62711 19.2606 2.30013C18.2271 4.73772 16.2631 7.89507 15.5174 7.41212C14.7374 6.9084 15.0947 4.91325 15.1539 1.94804C15.1695 1.16493 15.1653 0.627977 13.9689 0.349632C13.3156 0.199035 12.68 0.136719 12.09 0.136719C9.72931 0.136719 8.10078 1.12651 9.02617 1.29891C10.6578 1.60322 10.501 5.13343 10.1209 6.6581C9.45823 9.31276 6.96767 4.55597 5.9301 2.18692C5.6798 1.61776 5.60294 1.17532 4.70975 1.17532H1.3291C0.818106 1.17532 0.511719 1.3415 0.511719 1.71124C0.511719 2.33648 3.58598 8.69064 6.52107 11.8584C9.38345 14.9482 12.2126 14.6709 14.1818 14.6709Z" fill="#9CBDFD"/>
</svg>
