<svg width="97" height="100" viewBox="0 0 97 100" fill="none" xmlns="http://www.w3.org/2000/svg">
<path d="M17.9951 26.1893C18.2583 26.1015 18.4339 25.926 18.6971 25.8382C16.0643 22.6789 15.9766 21.2747 16.4154 20.6604C17.9951 18.5542 22.6463 16.3602 29.4916 16.3602C33.353 16.3602 37.3022 17.0623 41.0759 18.4664C47.1313 20.6604 50.9927 22.3278 53.5377 23.3809C56.0828 24.4341 57.5747 25.0484 59.1544 25.3994C60.383 25.6627 61.5239 25.7505 62.4892 25.7505C63.1035 25.7505 63.7178 25.6627 64.2444 25.5749C63.8934 24.8729 63.6301 24.1708 63.2791 23.4687C62.7525 22.4156 62.2259 21.3625 61.6116 20.3094C61.1728 20.3094 60.734 20.2216 60.2075 20.1338C59.1543 19.8706 57.838 19.344 55.5562 18.3786C52.9234 17.3255 49.062 15.6581 42.831 13.3763C38.5308 11.7967 33.9673 11.0068 29.4916 11.0068C21.8565 11.0068 15.1868 13.4641 12.2907 17.4133C9.48237 21.0992 11.5886 25.3117 13.9581 28.471C15.2745 27.6812 16.5909 26.8913 17.9951 26.1893Z" fill="#00B2FF"/>
<path d="M71.8784 19.3461C71.9662 19.6093 72.054 19.7849 72.2295 20.0481C73.6336 18.8195 75.3888 17.5909 76.5297 17.5909C76.793 17.5909 76.9685 17.6786 77.144 17.8541C80.6544 20.5747 83.4627 31.1936 79.338 43.0412C77.2318 49.1844 75.6521 53.0458 74.599 55.6786C73.5459 58.3114 72.9315 59.8033 72.5805 61.3829C72.1417 63.4892 72.1417 65.1566 72.3172 66.5608C73.0193 66.2097 73.7214 65.9464 74.4235 65.5077C75.5643 64.9811 76.5297 64.3668 77.4951 63.7525C77.4951 63.3137 77.5828 62.8749 77.6706 62.3483C77.8461 61.2952 78.4604 59.891 79.338 57.6093C80.3911 54.9765 81.9708 50.9395 84.2525 44.6208C88.9916 30.9303 85.92 17.7664 80.3034 13.3784C79.1625 12.5008 77.8461 12.062 76.4419 12.062C73.9847 12.062 71.6152 13.4662 69.5967 15.0458C70.4743 16.5378 71.2641 17.8542 71.8784 19.3461Z" fill="#00B2FF"/>
<path d="M78.5488 74.4566C78.2855 74.5443 78.11 74.7198 77.8467 74.8076C80.4795 77.9669 80.5673 79.3711 80.1285 79.9854C78.5488 82.0916 73.8975 84.2856 67.0523 84.2856C63.2786 84.2856 59.2417 83.5836 55.468 82.1794C49.4126 79.9854 45.6389 78.4057 43.0939 77.2649C40.5489 76.2118 39.0569 75.5097 37.4773 75.2464C36.2486 74.9831 35.1955 74.8954 34.2302 74.8954C33.5281 74.8954 32.9138 74.9831 32.3872 75.0709C32.6505 75.773 33.0015 76.475 33.3526 77.1771C33.8791 78.2302 34.4057 79.2833 35.1078 80.3365C35.5466 80.3365 35.9854 80.4242 36.4242 80.512C37.4773 80.7753 38.8814 81.3018 41.0754 82.2672C43.7082 83.3203 47.5696 84.9877 53.8006 87.2695C58.1008 88.8491 62.6643 89.639 67.14 89.639C73.8098 89.639 81.4449 87.1817 84.4287 83.2325C87.237 79.5466 85.1308 75.3342 82.7613 72.1748C81.3571 73.0524 79.953 73.7545 78.5488 74.4566Z" fill="#00B2FF"/>
<path d="M24.6642 81.3895C24.5765 81.1262 24.4009 80.863 24.3132 80.5997C22.8213 82.0038 21.2416 83.3202 20.1885 83.3202C20.1008 83.3202 19.8375 83.3202 19.3109 82.9692C15.8006 80.2486 12.9923 69.6297 17.117 57.7822C19.3109 51.5512 20.8906 47.602 21.9437 45.057C22.9968 42.4242 23.6111 40.9323 23.9621 39.3526C24.4009 37.2464 24.4009 35.579 24.2254 34.1748C23.5233 34.5258 22.8213 34.7891 22.1192 35.1402C20.9784 35.6667 20.013 36.281 19.0477 36.8954C19.0477 37.3342 18.9599 37.7729 18.8721 38.2995C18.6966 39.3526 18.0823 40.7568 17.2047 43.0385C16.1516 45.6713 14.4842 49.7083 12.2903 56.027C7.46353 69.6297 10.5351 82.7937 16.1516 87.1817C17.3802 88.147 18.7844 88.6736 20.1885 88.6736C22.6458 88.6736 24.752 87.2694 26.8582 85.4265C26.0683 84.1101 25.2785 82.7937 24.6642 81.3895Z" fill="#00B2FF"/>
<path d="M10.1813 55.1547C10.2691 54.8914 10.3568 54.6282 10.4446 54.2771C6.49541 54.0138 5.4423 53.575 5.26678 52.3464C4.65246 47.8707 10.0058 38.3926 21.1513 32.9515C26.9434 30.1432 30.8048 28.4758 33.3499 27.4227C35.8949 26.3695 37.3868 25.6675 38.7032 24.7899C40.4584 23.5612 41.687 22.4204 42.4769 21.2795C41.7748 21.0162 41.0727 20.7529 40.2829 20.4896C39.2298 20.0508 38.0889 19.7876 36.948 19.4365C36.597 19.6998 36.2459 19.9631 35.8071 20.3141C34.9296 20.9284 33.5254 21.455 31.3314 22.4204C28.7864 23.5612 24.8372 25.2287 18.8695 28.037C6.05661 34.4434 -0.876399 46.0277 0.0889572 53.1362C0.703275 58.2263 5.0035 59.2794 8.86493 59.6305C9.21597 58.1385 9.65476 56.6466 10.1813 55.1547Z" fill="#00B2FF"/>
<path d="M43.5287 11.3623C43.792 11.4501 44.0553 11.5379 44.3186 11.6256C44.6696 7.58868 45.5472 6.4478 46.2493 6.36005C46.4248 6.36005 46.6881 6.36005 46.8636 6.36005C52.0414 6.36005 60.4664 12.591 65.1176 22.5956C67.8382 28.5632 69.5056 32.5124 70.5587 35.0575C71.6118 37.6025 72.2262 39.1822 73.1038 40.5863C74.2446 42.4293 75.3855 43.5701 76.5264 44.4477C76.7897 43.7457 77.0529 43.0436 77.3162 42.2538C77.755 41.0251 78.0183 39.8842 78.3693 38.7434C78.1061 38.3923 77.8428 38.0413 77.5795 37.6025C76.9652 36.6371 76.4386 35.3207 75.4733 33.039C74.4202 30.4062 72.7527 26.3693 69.9444 20.3138C64.1523 7.67644 53.7089 0.918945 46.9514 0.918945C46.5126 0.918945 46.0738 0.918945 45.635 1.0067C41.1592 1.62102 39.6673 6.00901 39.2285 9.95819C40.6327 10.397 42.1246 10.8358 43.5287 11.3623Z" fill="#00B2FF"/>
<path d="M96.4493 47.5214C95.835 42.8702 91.5348 41.3783 87.6734 40.9395C87.3223 42.4314 86.8835 44.011 86.357 45.503C86.2692 45.7662 86.1814 46.0295 86.0937 46.205C90.0429 46.5561 91.096 47.4337 91.1837 48.2235C91.7981 52.6993 86.4447 62.1773 75.2992 67.6184C69.5071 70.4267 65.6457 72.0941 63.1006 73.1473C60.5556 74.2004 59.0637 74.9025 57.7473 75.7801C55.9921 77.0087 54.7635 78.1496 53.9736 79.2904C54.6757 79.5537 55.3778 79.817 56.1676 80.0803C57.2207 80.5191 58.3616 80.7824 59.5025 81.1334C59.8535 80.8701 60.2046 80.6068 60.6434 80.2558C61.521 79.6415 62.9251 79.1149 65.1191 78.1496C67.6641 77.0087 71.6133 75.3413 77.581 72.5329C90.4817 66.302 97.4147 54.7177 96.4493 47.5214Z" fill="#00B2FF"/>
<path d="M53.0082 89.3814C52.7449 89.2937 52.4816 89.2059 52.2184 89.1181C51.8673 93.1551 50.9897 94.296 50.2877 94.3837C50.1121 94.3837 49.8489 94.3837 49.6733 94.3837C44.4955 94.3837 36.0706 88.1528 31.4193 78.1482C28.611 72.1805 27.0313 68.2313 25.9782 65.6863C24.9251 63.0535 24.3108 61.5616 23.4332 60.1575C22.2923 58.3145 21.0637 57.1736 20.0106 56.3838C19.7473 57.0859 19.484 57.7879 19.2207 58.5778C18.7819 59.8064 18.5187 60.9473 18.2554 62.0882C18.5187 62.4392 18.7819 62.7902 19.0452 63.229C19.6595 64.1944 20.1861 65.5108 21.1514 67.8803C22.2046 70.5131 23.872 74.55 26.6803 80.6055C32.5602 93.1551 42.9158 99.9126 49.7611 100C50.1999 100 50.6387 100 51.0775 99.9126C55.5532 99.2983 57.0452 94.9103 57.484 90.9611C55.9043 90.3468 54.4124 89.908 53.0082 89.3814Z" fill="#00B2FF"/>
</svg>
