<svg width="154" height="45" viewBox="0 0 154 45" fill="none" xmlns="http://www.w3.org/2000/svg">
<path d="M25.9455 19.9555L26.2897 16.9753L25.9455 19.9555ZM128.148 19.9555L127.803 16.9753L128.148 19.9555ZM6.68404 43.5804C6.20104 39.4895 6.68255 33.6574 9.36374 29.261C10.6695 27.1198 12.4848 25.3312 14.9974 24.1745C17.5219 23.0122 20.9471 22.3981 25.6013 22.9356L26.2897 16.9753C20.7766 16.3385 16.2057 17.0129 12.4882 18.7243C8.75876 20.4413 6.08616 23.1117 4.24119 26.1369C0.620862 32.0733 0.149271 39.4039 0.725424 44.2839L6.68404 43.5804ZM25.6013 22.9356C31.9025 23.6635 38.047 24.8525 44.2059 25.7814C50.2066 26.6863 56.1429 27.3277 61.3697 26.7281C66.6785 26.1192 71.5534 24.1919 75.0088 19.7274C78.3918 15.3565 80.0465 9.01781 80.0465 0.382733L74.0465 0.382733C74.0465 8.38448 72.4909 13.1778 70.264 16.0549C68.1096 18.8385 64.975 20.2752 60.6859 20.7672C56.3147 21.2686 51.0644 20.7479 45.1007 19.8485C39.2952 18.9729 32.6975 17.7154 26.2897 16.9753L25.6013 22.9356ZM153.368 44.2839C153.944 39.4039 153.472 32.0733 149.852 26.1369C148.007 23.1117 145.334 20.4413 141.605 18.7243C137.887 17.0129 133.316 16.3385 127.803 16.9753L128.492 22.9356C133.146 22.3981 136.571 23.0122 139.096 24.1745C141.608 25.3312 143.423 27.1198 144.729 29.2609C147.41 33.6574 147.892 39.4895 147.409 43.5804L153.368 44.2839ZM127.803 16.9753C121.395 17.7154 114.798 18.9729 108.992 19.8485C103.029 20.7479 97.7783 21.2686 93.4071 20.7672C89.1179 20.2752 85.9834 18.8385 83.829 16.0549C81.6021 13.1778 80.0465 8.38448 80.0465 0.382733L74.0465 0.382733C74.0465 9.01781 75.7012 15.3565 79.0842 19.7274C82.5396 24.1919 87.4144 26.1192 92.7233 26.7281C97.9501 27.3277 103.886 26.6863 109.887 25.7814C116.046 24.8525 122.19 23.6635 128.492 22.9356L127.803 16.9753Z" fill="#C238F2"/>
</svg>
