<svg width="84" height="82" viewBox="0 0 84 82" fill="none" xmlns="http://www.w3.org/2000/svg">
<path d="M30.6905 9.73463L30.9532 9.60812C29.9802 8.47939 29.9802 7.97339 30.1358 7.73986C30.7197 6.97115 32.3933 6.19271 34.8454 6.19271C36.2694 6.20236 37.6813 6.45579 39.0198 6.94198C41.2092 7.73988 42.5909 8.32369 43.5153 8.71291C44.1645 9.01601 44.8384 9.26342 45.5295 9.45243C45.9296 9.53682 46.3369 9.58245 46.7458 9.58867C46.9581 9.59036 47.1699 9.5708 47.3783 9.53029C47.2615 9.28703 47.1447 9.03403 47.028 8.76158C46.8429 8.37202 46.6383 7.99204 46.415 7.6231C46.2593 7.6231 46.0939 7.62311 45.9187 7.54526C45.3431 7.37524 44.7805 7.16387 44.2353 6.91279C43.2623 6.51384 41.8903 5.93973 39.6523 5.11264C38.112 4.54863 36.4857 4.25562 34.8454 4.24661C32.0819 4.24661 29.698 5.13209 28.6276 6.56248C27.5573 7.99286 28.3552 9.39405 29.2406 10.5422C29.7098 10.2484 30.1937 9.97889 30.6905 9.73463Z" fill="#009FE3"/>
<path d="M50.1523 7.24372L50.2691 7.49669C50.6861 7.05022 51.2292 6.74139 51.826 6.61124C51.8682 6.60822 51.9105 6.61353 51.9506 6.62689C51.9906 6.64025 52.0277 6.66137 52.0595 6.68907C53.3342 7.66212 54.3365 11.4862 52.8477 15.7676C52.0693 18.0056 51.5049 19.4263 51.1254 20.3701C50.8249 21.0352 50.584 21.7255 50.4053 22.433C50.2647 23.0488 50.2351 23.6848 50.3178 24.311L51.0768 23.951C51.4572 23.7629 51.8274 23.5551 52.186 23.3282C52.186 23.1823 52.1861 23.0168 52.2639 22.832C52.4229 22.2414 52.6312 21.6653 52.8866 21.1097C53.2661 20.1366 53.8597 18.7062 54.6381 16.4196C56.3604 11.4959 55.2414 6.68907 53.2272 5.14192C52.8287 4.82588 52.3347 4.65436 51.826 4.6554C50.9015 4.7355 50.0292 5.11859 49.3447 5.74521C49.6366 6.23174 49.9091 6.728 50.1523 7.24372Z" fill="#009FE3"/>
<path d="M52.5555 27.1424L52.3025 27.2689C53.2755 28.3976 53.2756 28.9036 53.1101 29.1372C52.536 29.9059 50.8526 30.6843 48.4006 30.6843C46.9798 30.6737 45.5713 30.4203 44.2359 29.935C42.0465 29.1371 40.6551 28.5533 39.7404 28.1641C39.0884 27.844 38.4075 27.5866 37.7068 27.3954C37.3231 27.3108 36.9319 27.2651 36.5391 27.2591C36.3136 27.2601 36.0887 27.2829 35.8677 27.3273L36.218 28.0862C36.4029 28.4755 36.6169 28.855 36.8407 29.2345C37.0007 29.249 37.1599 29.2717 37.3175 29.3026C37.897 29.4705 38.463 29.6819 39.0106 29.935C39.9837 30.334 41.3557 30.9081 43.5937 31.7352C45.1308 32.2985 46.7538 32.5915 48.3908 32.6012C50.7943 32.6012 53.548 31.7157 54.6184 30.2853C55.6887 28.855 54.8811 27.444 54.0053 26.3056C53.5379 26.6111 53.0539 26.8904 52.5555 27.1424Z" fill="#009FE3"/>
<path d="M33.104 29.6335L32.9678 29.3416C32.4132 29.8378 31.8488 30.3146 31.4888 30.3146C31.3763 30.3102 31.2691 30.2653 31.1871 30.1881C29.9222 29.2151 28.9199 25.391 30.4087 21.1096C31.1871 18.8716 31.7515 17.4509 32.131 16.5071C32.4314 15.842 32.6724 15.1517 32.8511 14.4442C32.9917 13.8284 33.0213 13.1924 32.9386 12.5662L32.1797 12.9262C31.7807 13.1209 31.411 13.3349 31.0607 13.549C31.0468 13.7161 31.0208 13.8819 30.9828 14.0452C30.8284 14.6359 30.6233 15.2121 30.3698 15.7675C29.9903 16.7406 29.3967 18.171 28.6086 20.4576C26.896 25.391 28.015 30.1881 30.0292 31.7353C30.4411 32.0738 30.9557 32.2625 31.4888 32.2705C32.405 32.1855 33.2591 31.7705 33.8922 31.1028C33.601 30.6289 33.3378 30.1383 33.104 29.6335Z" fill="#009FE3"/>
<path d="M27.8795 20.1852C27.8795 20.0781 27.9476 19.9808 27.9866 19.8835C26.5464 19.7959 26.1864 19.6403 26.128 19.1927C25.914 17.5774 27.8309 14.162 31.8496 12.2062C33.9416 11.1845 35.3331 10.6006 36.2477 10.2114C36.9236 9.94454 37.5748 9.61895 38.1938 9.23836C38.7224 8.89724 39.1868 8.46577 39.5658 7.96367L38.7679 7.66203C38.369 7.5258 37.97 7.39931 37.5614 7.302L37.1527 7.61338C36.6297 7.90737 36.0867 8.16422 35.5277 8.38207C34.5546 8.78102 33.1826 9.35512 31.0419 10.4157C26.4199 12.6635 23.9095 16.8476 24.2306 19.4262C24.4641 21.2458 25.9821 21.635 27.4027 21.7615C27.5355 21.2285 27.6946 20.7024 27.8795 20.1852Z" fill="#009FE3"/>
<path d="M39.916 4.36332L40.1884 4.46063C40.3052 2.99133 40.6263 2.60212 40.8987 2.5632H41.1323C42.9908 2.5632 46.0462 4.81095 47.7295 8.4015C48.7026 10.5519 49.3059 11.9726 49.6756 12.9067C49.9419 13.5828 50.2675 14.2341 50.6487 14.8528C50.9689 15.3848 51.3846 15.8533 51.8747 16.2345L52.1569 15.4464C52.2981 15.031 52.4182 14.6088 52.5169 14.1814C52.4294 14.0646 52.3321 13.9381 52.2348 13.7825C51.9391 13.2496 51.6885 12.693 51.4855 12.1185C51.0963 11.1455 50.5124 9.72482 49.5394 7.52573C47.4279 2.99132 43.7011 0.548982 41.2198 0.548982C41.0578 0.539011 40.8953 0.539011 40.7333 0.548982C39.1083 0.772784 38.5829 2.34911 38.4175 3.78922C38.9269 3.95358 39.4271 4.14522 39.916 4.36332Z" fill="#009FE3"/>
<path d="M59.017 17.4216C58.8029 15.7577 57.2557 15.2225 55.8448 15.0474C55.7176 15.6032 55.5616 16.1521 55.3777 16.6918C55.3777 16.7794 55.3194 16.867 55.2804 16.9545C56.7108 17.0713 57.0903 17.3924 57.1292 17.6746C57.3336 19.2996 55.4167 22.715 51.4077 24.6708C49.3059 25.6925 47.9242 26.2764 47.0095 26.6656C46.3327 26.9304 45.6813 27.256 45.0634 27.6386C44.5299 27.9773 44.0645 28.413 43.6914 28.9231L44.4893 29.215C44.8851 29.3554 45.2878 29.4756 45.6959 29.575L46.1046 29.2636C46.6265 28.9676 47.1697 28.7107 47.7296 28.4949C48.7026 28.096 50.0746 27.5219 52.2153 26.4612C56.847 24.1843 59.3478 20.0002 59.017 17.4216Z" fill="#009FE3"/>
<path d="M43.3414 32.5136L43.0689 32.4163C42.9522 33.8856 42.6311 34.2748 42.3586 34.3137H42.1251C40.2568 34.3137 37.2112 32.066 35.5278 28.4754C34.5548 26.325 33.9515 24.9044 33.5817 23.9702C33.3311 23.2958 33.0217 22.6446 32.6573 22.0241C32.3343 21.4939 31.9152 21.0286 31.4215 20.6521L31.1491 21.4306C31.0047 21.8449 30.8845 22.2673 30.7891 22.6955L31.0712 23.0945C31.3627 23.6293 31.6132 24.1856 31.8205 24.7584C32.2097 25.7314 32.7935 27.1618 33.8152 29.3512C35.9267 33.8856 39.6535 36.3279 42.1348 36.3279C42.2936 36.3379 42.4528 36.3379 42.6116 36.3279C44.2366 36.1041 44.762 34.5278 44.9372 33.0877C44.3948 32.9267 43.862 32.7351 43.3414 32.5136Z" fill="#009FE3"/>
<path d="M82.0587 62.3084L75.9868 67.1737C76.0387 67.4397 76.0647 67.7102 76.0646 67.9813C76.0942 69.3364 75.7759 70.6764 75.1402 71.8735C74.5596 72.9574 73.6909 73.8598 72.6298 74.4813C71.5441 75.0872 70.3215 75.4052 69.0782 75.4052C67.8349 75.4052 66.6122 75.0872 65.5266 74.4813C64.4606 73.8586 63.5882 72.9525 63.0063 71.8638C62.6607 71.3551 62.4102 70.7881 62.2668 70.1901L56.5161 74.8607V74.9094C57.7578 76.9506 59.5346 78.613 61.6538 79.7163C63.9437 80.862 66.469 81.4585 69.0295 81.4585C71.59 81.4585 74.1154 80.862 76.4052 79.7163C78.5413 78.6115 80.3279 76.9343 81.5652 74.8721C82.8025 72.81 83.4416 70.4443 83.4112 68.0397C83.4574 66.0451 82.9917 64.0719 82.0587 62.3084Z" fill="white"/>
<path d="M62.0912 63.8264C62.0752 62.4668 62.4104 61.1262 63.0642 59.9342C63.642 58.8481 64.5114 57.945 65.5747 57.3264C66.6604 56.7205 67.883 56.4024 69.1263 56.4024C70.3696 56.4024 71.5923 56.7205 72.678 57.3264C73.7412 57.945 74.6107 58.8481 75.1884 59.9342C75.5292 60.5661 75.7751 61.2448 75.9182 61.9484L81.7565 57.2388L81.5716 56.9177C80.3297 54.8791 78.5528 53.22 76.4339 52.1206C74.144 50.9748 71.6187 50.3783 69.0582 50.3783C66.4977 50.3783 63.9724 50.9748 61.6825 52.1206C58.6316 53.7874 56.3442 56.5702 55.2994 59.886C54.2546 63.2017 54.5335 66.7932 56.0777 69.9079L62.1496 64.9843C62.1045 64.6 62.085 64.2132 62.0912 63.8264Z" fill="white"/>
<path d="M0.585449 50.3593V65.6751L7.90277 59.6908V50.3593H0.585449Z" fill="white"/>
<path d="M0.585449 70.9004L8.02927 64.8383H17.9836L25.2036 59.0681V80.7282H17.8863V70.6377H7.90277V80.7282H0.585449V70.9004Z" fill="white"/>
<path d="M17.8862 59.6908V50.3593H25.2036V53.8331L17.8862 59.6908Z" fill="white"/>
<path d="M30.439 50.3593V56.1587H38.3888V68.3023L45.5991 62.97V56.1587L53.5002 50.3593H30.439Z" fill="white"/>
<path d="M51.4951 58.7081L60.6807 52.6849L60.6418 58.7568L51.4951 58.7081Z" fill="white"/>
<path d="M38.4658 73.5958L45.6761 68.3024V80.8255H38.4658V73.5958Z" fill="white"/>
</svg>
