<svg width="425" height="409" viewBox="0 0 425 409" fill="none" xmlns="http://www.w3.org/2000/svg">
<path fill-rule="evenodd" clip-rule="evenodd" d="M424.939 403.826C424.939 406.588 422.7 408.826 419.939 408.826L5.65479 408.825C2.89337 408.825 0.654816 406.586 0.654816 403.825V5.34231C0.654816 2.58088 2.8934 0.342274 5.65485 0.342285L347.251 0.34366C348.608 0.343666 349.906 0.894773 350.848 1.87056L423.536 77.1488C424.436 78.081 424.939 79.3262 424.939 80.6219V164.651C424.939 167.412 422.7 169.651 419.939 169.651H400.401C397.64 169.651 395.401 171.889 395.401 174.651V177.942C395.401 180.703 397.64 182.942 400.401 182.942H419.939C422.7 182.942 424.939 185.18 424.939 187.942V403.826ZM90.1001 360.896C90.1001 359.239 88.757 357.896 87.1001 357.896C85.4432 357.896 84.1001 359.239 84.1001 360.896V375.728C84.1001 377.385 85.4432 378.728 87.1001 378.728C88.757 378.728 90.1001 377.385 90.1001 375.728V360.896ZM60.7168 360.896C60.7168 359.239 62.0599 357.896 63.7168 357.896C65.3737 357.896 66.7168 359.239 66.7168 360.896V375.728C66.7168 377.385 65.3737 378.728 63.7168 378.728C62.0599 378.728 60.7168 377.385 60.7168 375.728V360.896ZM323.875 360.896C323.875 359.239 322.531 357.896 320.875 357.896C319.218 357.896 317.875 359.239 317.875 360.896V375.728C317.875 377.385 319.218 378.728 320.875 378.728C322.531 378.728 323.875 377.385 323.875 375.728V360.896ZM177.635 360.896C177.635 359.239 178.978 357.896 180.635 357.896C182.292 357.896 183.635 359.239 183.635 360.896V375.728C183.635 377.385 182.292 378.728 180.635 378.728C178.978 378.728 177.635 377.385 177.635 375.728V360.896ZM207.019 360.896C207.019 359.239 205.675 357.896 204.019 357.896C202.362 357.896 201.019 359.239 201.019 360.896V375.728C201.019 377.385 202.362 378.728 204.019 378.728C205.675 378.728 207.019 377.385 207.019 375.728V360.896ZM388.025 360.896C388.025 359.239 389.369 357.896 391.025 357.896C392.682 357.896 394.025 359.239 394.025 360.896V375.728C394.025 377.385 392.682 378.728 391.025 378.728C389.369 378.728 388.025 377.385 388.025 375.728V360.896ZM277.169 360.896C277.169 359.239 275.826 357.896 274.169 357.896C272.512 357.896 271.169 359.239 271.169 360.896V375.728C271.169 377.385 272.512 378.728 274.169 378.728C275.826 378.728 277.169 377.385 277.169 375.728V360.896ZM294.491 360.896C294.491 359.239 295.834 357.896 297.491 357.896C299.148 357.896 300.491 359.239 300.491 360.896V375.728C300.491 377.385 299.148 378.728 297.491 378.728C295.834 378.728 294.491 377.385 294.491 375.728V360.896ZM160.251 360.896C160.251 359.239 158.908 357.896 157.251 357.896C155.594 357.896 154.251 359.239 154.251 360.896V375.728C154.251 377.385 155.594 378.728 157.251 378.728C158.908 378.728 160.251 377.385 160.251 375.728V360.896ZM341.258 360.896C341.258 359.239 342.601 357.896 344.258 357.896C345.915 357.896 347.258 359.239 347.258 360.896V375.728C347.258 377.385 345.915 378.728 344.258 378.728C342.601 378.728 341.258 377.385 341.258 375.728V360.896ZM43.333 360.896C43.333 359.239 41.9899 357.896 40.333 357.896C38.6761 357.896 37.333 359.239 37.333 360.896V375.728C37.333 377.385 38.6761 378.728 40.333 378.728C41.9899 378.728 43.333 377.385 43.333 375.728V360.896Z" fill="#1C1C7A"/>
</svg>
