<svg width="425" height="409" viewBox="0 0 425 409" fill="none" xmlns="http://www.w3.org/2000/svg">
<path fill-rule="evenodd" clip-rule="evenodd" d="M424.364 403.845C424.364 406.606 422.126 408.845 419.364 408.845L5.08008 408.843C2.31866 408.843 0.0801086 406.605 0.0801086 403.843V5.36086C0.0801086 2.59943 2.3187 0.360829 5.08014 0.36084L346.677 0.362215C348.033 0.36222 349.331 0.913328 350.274 1.88912L422.961 77.1674C423.861 78.0995 424.364 79.3447 424.364 80.6405V164.669C424.364 167.431 422.126 169.669 419.364 169.669H399.826C397.065 169.669 394.826 171.908 394.826 174.669V177.96C394.826 180.722 397.065 182.96 399.826 182.96H419.364C422.126 182.96 424.364 185.199 424.364 187.96V403.845ZM340.684 360.914C340.684 359.257 342.027 357.914 343.684 357.914C345.34 357.914 346.684 359.257 346.684 360.914V375.746C346.684 377.403 345.34 378.746 343.684 378.746C342.027 378.746 340.684 377.403 340.684 375.746V360.914ZM370.067 360.914C370.067 359.257 368.724 357.914 367.067 357.914C365.41 357.914 364.067 359.257 364.067 360.914V375.746C364.067 377.403 365.41 378.746 367.067 378.746C368.724 378.746 370.067 377.403 370.067 375.746V360.914ZM106.909 360.914C106.909 359.257 108.252 357.914 109.909 357.914C111.566 357.914 112.909 359.257 112.909 360.914V375.746C112.909 377.403 111.566 378.746 109.909 378.746C108.252 378.746 106.909 377.403 106.909 375.746V360.914ZM253.149 360.914C253.149 359.257 251.806 357.914 250.149 357.914C248.492 357.914 247.149 359.257 247.149 360.914V375.746C247.149 377.403 248.492 378.746 250.149 378.746C251.806 378.746 253.149 377.403 253.149 375.746V360.914ZM223.765 360.914C223.765 359.257 225.108 357.914 226.765 357.914C228.422 357.914 229.765 359.257 229.765 360.914V375.746C229.765 377.403 228.422 378.746 226.765 378.746C225.108 378.746 223.765 377.403 223.765 375.746V360.914ZM42.7583 360.914C42.7583 359.257 41.4152 357.914 39.7583 357.914C38.1014 357.914 36.7583 359.257 36.7583 360.914V375.746C36.7583 377.403 38.1014 378.746 39.7583 378.746C41.4152 378.746 42.7583 377.403 42.7583 375.746V360.914ZM153.615 360.914C153.615 359.257 154.958 357.914 156.615 357.914C158.272 357.914 159.615 359.257 159.615 360.914V375.746C159.615 377.403 158.272 378.746 156.615 378.746C154.958 378.746 153.615 377.403 153.615 375.746V360.914ZM136.293 360.914C136.293 359.257 134.95 357.914 133.293 357.914C131.636 357.914 130.293 359.257 130.293 360.914V375.746C130.293 377.403 131.636 378.746 133.293 378.746C134.95 378.746 136.293 377.403 136.293 375.746V360.914ZM270.533 360.914C270.533 359.257 271.876 357.914 273.533 357.914C275.19 357.914 276.533 359.257 276.533 360.914V375.746C276.533 377.403 275.19 378.746 273.533 378.746C271.876 378.746 270.533 377.403 270.533 375.746V360.914ZM89.5259 360.914C89.5259 359.257 88.1827 357.914 86.5259 357.914C84.869 357.914 83.5259 359.257 83.5259 360.914V375.746C83.5259 377.403 84.869 378.746 86.5259 378.746C88.1827 378.746 89.5259 377.403 89.5259 375.746V360.914ZM387.451 360.914C387.451 359.257 388.794 357.914 390.451 357.914C392.108 357.914 393.451 359.257 393.451 360.914V375.746C393.451 377.403 392.108 378.746 390.451 378.746C388.794 378.746 387.451 377.403 387.451 375.746V360.914Z" fill="#1C1C7A"/>
</svg>
