<svg width="428" height="410" viewBox="0 0 428 410" fill="none" xmlns="http://www.w3.org/2000/svg">
<path fill-rule="evenodd" clip-rule="evenodd" d="M427.007 404.826C427.007 407.588 424.768 409.826 422.007 409.826L5.51147 409.825C2.75006 409.825 0.511505 407.586 0.511505 404.825V5.66894C0.511505 2.90751 2.75009 0.668935 5.51154 0.668945L348.762 0.670201C350.193 0.670206 351.556 1.28377 352.505 2.3555L425.75 85.0725C426.56 85.9869 427.007 87.1659 427.007 88.3872L427.007 167.042C427.007 169.803 424.768 172.042 422.007 172.042H400.258C397.496 172.042 395.258 174.281 395.258 177.042V180.333C395.258 183.094 397.496 185.333 400.258 185.333H422.007C424.768 185.333 427.007 187.572 427.007 190.333L427.007 404.826ZM131.376 361.246C131.376 359.589 130.033 358.246 128.376 358.246C126.719 358.246 125.376 359.589 125.376 361.246V376.078C125.376 377.735 126.719 379.078 128.376 379.078C130.033 379.078 131.376 377.735 131.376 376.078V361.246ZM314.279 361.246C314.279 359.589 315.622 358.246 317.279 358.246C318.936 358.246 320.279 359.589 320.279 361.246V376.078C320.279 377.735 318.936 379.078 317.279 379.078C315.622 379.078 314.279 377.735 314.279 376.078V361.246ZM367.521 361.246C367.521 359.589 366.177 358.246 364.521 358.246C362.864 358.246 361.521 359.589 361.521 361.246V376.078C361.521 377.735 362.864 379.078 364.521 379.078C366.177 379.078 367.521 377.735 367.521 376.078V361.246ZM196.238 361.246C196.238 359.589 197.581 358.246 199.238 358.246C200.895 358.246 202.238 359.589 202.238 361.246V376.078C202.238 377.735 200.895 379.078 199.238 379.078C197.581 379.078 196.238 377.735 196.238 376.078V361.246ZM225.859 361.246C225.859 359.589 224.516 358.246 222.859 358.246C221.202 358.246 219.859 359.589 219.859 361.246V376.078C219.859 377.735 221.202 379.078 222.859 379.078C224.516 379.078 225.859 377.735 225.859 376.078V361.246ZM243.542 361.246C243.542 359.589 244.885 358.246 246.542 358.246C248.198 358.246 249.542 359.589 249.542 361.246V376.078C249.542 377.735 248.198 379.078 246.542 379.078C244.885 379.078 243.542 377.735 243.542 376.078V361.246ZM391.142 361.246C391.142 359.589 389.798 358.246 388.142 358.246C386.485 358.246 385.142 359.589 385.142 361.246V376.078C385.142 377.735 386.485 379.078 388.142 379.078C389.798 379.078 391.142 377.735 391.142 376.078V361.246ZM267.1 361.246C267.1 359.589 268.443 358.246 270.1 358.246C271.757 358.246 273.1 359.589 273.1 361.246V376.078C273.1 377.735 271.757 379.078 270.1 379.078C268.443 379.078 267.1 377.735 267.1 376.078V361.246ZM101.755 361.244C101.755 359.587 103.099 358.244 104.755 358.244C106.412 358.244 107.755 359.587 107.755 361.244V376.076C107.755 377.733 106.412 379.076 104.755 379.076C103.099 379.076 101.755 377.733 101.755 376.076V361.244ZM154.997 361.244C154.997 359.587 153.654 358.244 151.997 358.244C150.34 358.244 148.997 359.587 148.997 361.244V376.076C148.997 377.733 150.34 379.076 151.997 379.076C153.654 379.076 154.997 377.733 154.997 376.076V361.244ZM30.8931 361.246C30.8931 359.589 32.2362 358.246 33.8931 358.246C35.5499 358.246 36.8931 359.589 36.8931 361.246V376.078C36.8931 377.735 35.5499 379.078 33.8931 379.078C32.2362 379.078 30.8931 377.735 30.8931 376.078V361.246Z" fill="#1C1C7A"/>
</svg>
