<svg width="62" height="63" viewBox="0 0 62 63" fill="none" xmlns="http://www.w3.org/2000/svg">
<path fill-rule="evenodd" clip-rule="evenodd" d="M31 62.5581C48.1208 62.5581 62 48.6789 62 31.5581C62 14.4373 48.1208 0.558105 31 0.558105C13.8792 0.558105 0 14.4373 0 31.5581C0 48.6789 13.8792 62.5581 31 62.5581ZM21.1055 43.5581H40.4255V39.4381H28.5855C32.5321 36.4514 35.4655 33.8248 37.3855 31.5581C39.3055 29.2914 40.2655 27.0114 40.2655 24.7181C40.2655 22.1581 39.3321 20.1448 37.4655 18.6781C35.5988 17.2114 33.3055 16.4781 30.5855 16.4781C28.6655 16.4781 26.8255 16.8514 25.0655 17.5981C23.3321 18.3181 21.8921 19.3714 20.7455 20.7581L23.4655 23.8381C25.3321 21.7048 27.7321 20.6381 30.6655 20.6381C31.9988 20.6381 33.1321 20.9981 34.0655 21.7181C35.0255 22.4114 35.5055 23.4114 35.5055 24.7181C35.5055 26.5314 34.4921 28.4648 32.4655 30.5181C30.4655 32.5448 26.6788 35.6648 21.1055 39.8781V43.5581Z" fill="#C237F2"/>
</svg>
