<svg width="62" height="63" viewBox="0 0 62 63" fill="none" xmlns="http://www.w3.org/2000/svg">
<path fill-rule="evenodd" clip-rule="evenodd" d="M31 62.5581C48.1208 62.5581 62 48.6789 62 31.5581C62 14.4373 48.1208 0.558105 31 0.558105C13.8792 0.558105 0 14.4373 0 31.5581C0 48.6789 13.8792 62.5581 31 62.5581ZM25.0156 43.8381C26.7756 44.6381 28.789 45.0381 31.0556 45.0381C34.0956 45.0381 36.5223 44.3181 38.3356 42.8781C40.1756 41.4381 41.0956 39.5714 41.0956 37.2781C41.0956 35.3848 40.4423 33.8648 39.1356 32.7181C37.829 31.5714 36.4156 30.9314 34.8956 30.7981C36.4423 30.5314 37.789 29.8648 38.9356 28.7981C40.109 27.7048 40.6956 26.3314 40.6956 24.6781C40.6956 22.4648 39.8156 20.7181 38.0556 19.4381C36.2956 18.1314 33.9623 17.4781 31.0556 17.4781C26.949 17.4781 23.709 18.8781 21.3356 21.6781L23.7356 24.5981C25.709 22.6248 28.0023 21.6381 30.6156 21.6381C32.189 21.6381 33.4823 21.9714 34.4956 22.6381C35.509 23.2781 36.0156 24.1981 36.0156 25.3981C36.0156 26.5714 35.509 27.4514 34.4956 28.0381C33.509 28.6248 32.189 28.9181 30.5356 28.9181C28.8023 28.9181 27.7756 28.9048 27.4556 28.8781V33.0781C27.7223 33.0514 28.749 33.0381 30.5356 33.0381C34.4823 33.0381 36.4556 34.2914 36.4556 36.7981C36.4556 38.0514 35.9623 39.0514 34.9756 39.7981C33.989 40.5181 32.629 40.8781 30.8956 40.8781C29.4823 40.8781 28.109 40.5848 26.7756 39.9981C25.4423 39.4114 24.349 38.6248 23.4956 37.6381L20.9756 40.7181C21.9356 41.9981 23.2823 43.0381 25.0156 43.8381Z" fill="#0E5EFA"/>
</svg>
